PathFileType	4	(X/Y/Z)	3_coords_data.trc
DataRate	CameraRate	NumFrames	NumMarkers	Units	OrigDataRate	OrigDataStartFrame	OrigNumFrames
30.0	30.0	7	21	m	30.0	10	58
Frame#	Time	THUMB_TIP	THUMB_IP	THUMB_MCP	THUMB_CMC	INDEX_TIP	INDEX_DIP	INDEX_PIP	INDEX_MCP	MIDDLE_TIP	MIDDLE_DIP	MIDDLE_PIP	MIDDLE_MCP	RING_TIP	RING_DIP	RING_PIP	RING_MCP	PINKY_TIP	PINKY_DIP	PINKY_PIP	PINKY_MCP	WRIST
X1	Y1	Z1	X2	Y2	Z2	X3	Y3	Z3	X4	Y4	Z4	X5	Y5	Z5	X6	Y6	Z6	X7	Y7	Z7	X8	Y8	Z8	X9	Y9	Z9	X10	Y10	Z10	X11	Y11	Z11	X12	Y12	Z12	X13	Y13	Z13	X14	Y14	Z14	X15	Y15	Z15	X16	Y16	Z16	X17	Y17	Z17	X18	Y18	Z18	X19	Y19	Z19	X20	Y20	Z20	X21	Y21	Z21
8	0.2999999999999987	0.47038598521685815	-0.020497345168384085	-0.17222560429930533	0.47818004083958476	-0.026640612085046755	-0.15150090964436574	0.4718053382141547	-0.03131016562589373	-0.12139479006434511	0.4726742655432926	-0.03281632487027075	-0.0768205099285173	0.5660238823938044	0.02774693569930209	-0.17367652591332006	0.5555067681668221	0.01814956989819627	-0.16248363182750086	0.5400034269754307	0.006571878866732939	-0.1464332949063245	0.5138383697166833	-0.011469601184976086	-0.1180866748222606	0.5864387933936214	0.04680551756528584	-0.14697188637106662	0.5752527783815243	0.03568082141733209	-0.1380772698102002	0.555697935982276	0.019720008983570736	-0.12350777581779082	0.5240398294819901	-0.0024461636229962114	-0.1010896357122325	0.6038845301840181	0.03974766809098773	-0.09945460289378938	0.588843749611227	0.03057709848646406	-0.09562373185840645	0.5669886870496509	0.019629066351942392	-0.09086171423862865	0.531553111950368	0.0014693379160121145	-0.08384280303272507	0.5996552100061489	0.026374750718311635	-0.05269670506398705	0.5836559928505516	0.020550467498246627	-0.054458174728928666	0.5639885458862219	0.013802669883802854	-0.05736863453105412	0.5320165385996735	-0.0016419710799834286	-0.06370403243241973	0.462283081001861	-0.023011742144276925	-0.051989820119430985
9	0.33333333333333187	0.4705774320908417	-0.020573097461660805	-0.17222100074456587	0.4783331744393945	-0.026695267459642236	-0.1514757001890502	0.47188257845789106	-0.03134593786934847	-0.12138282601220057	0.47270326390138095	-0.03282080305848467	-0.07680658516489813	0.5660543356125297	0.02773273920210606	-0.17367262044193665	0.555545111422244	0.0181342889474434	-0.16247324726183965	0.5400397105160085	0.006570276549233922	-0.1464150408554265	0.513873903305397	-0.011449755545686613	-0.1180554733284852	0.5864328839349386	0.0468016091500989	-0.1470061761476471	0.5752576681563153	0.03567749298026823	-0.1380972709544529	0.5557089404562244	0.019726373544130094	-0.12350896796741051	0.5240557586339805	-0.0024099390133668352	-0.10105439899170399	0.6038814224154215	0.03979826635912054	-0.09942654978952226	0.5888396636165142	0.03062806121165562	-0.09559864830321096	0.5669833947684164	0.019688557714938937	-0.09082258776287033	0.5315490410727197	0.001524236033737525	-0.0838093980441964	0.5996369266800938	0.026487235066937842	-0.05273693903754162	0.583640858873082	0.020650386418197608	-0.05448537049607205	0.5639809651377812	0.01387258845223649	-0.057377091791303125	0.532003909928175	-0.0015803606433704154	-0.06366658742850562	0.462283081001861	-0.023011742144276925	-0.051989820119430985
10	0.3666666666666651	0.47071628753666206	-0.020643380723426197	-0.1722246559938274	0.47844098496312704	-0.02674459635127646	-0.15146160666257447	0.4719299090232436	-0.031374400071114805	-0.12137854153249106	0.4727135580414953	-0.03282444571344989	-0.07680081994590326	0.5660515657846633	0.02772984418282165	-0.17368885737287038	0.5555504238411281	0.018129562214712625	-0.1624834745585919	0.5400449414536375	0.006579592748451213	-0.1464152433472966	0.5138829586637309	-0.011428742500942946	-0.11804471969957248	0.5864077538102804	0.04680876389430211	-0.14705393843128067	0.5752402108960456	0.03568964246625428	-0.13812919059579265	0.5557053506155528	0.01974002715150358	-0.12352068091365553	0.5240515006105587	-0.002373200726133007	-0.10104431880380649	0.6038700096672702	0.039845249946982575	-0.09941760819025536	0.5888270093358019	0.030678360779833325	-0.0955866443396498	0.5669703732589392	0.019745540398502626	-0.09079698079059495	0.5315399990497526	0.0015694526945579934	-0.08379417755363894	0.599617613586354	0.02659615551884209	-0.05280681298766621	0.5836227434400106	0.020751164248241527	-0.054538923275210704	0.5639684683970694	0.013947612353831462	-0.05740827392587777	0.5319910982389664	-0.001526460310986466	-0.06364400354923383	0.4622830810018609	-0.023011742144276925	-0.051989820119430985
11	0.39999999999999825	0.4707981798754751	-0.02071228709160977	-0.17223210775523867	0.4785026934661616	-0.026794857198409905	-0.15145609246773006	0.47194155868587884	-0.031390575851773184	-0.1213786776776572	0.47271388282872406	-0.032825493620386115	-0.07680026893064495	0.5660320881458548	0.027700358356822496	-0.17373028847339855	0.5555362671905406	0.018105198333915107	-0.1625155371783948	0.5400288603653242	0.006571068921460199	-0.14643778779441785	0.5138716629330405	-0.011420234163890708	-0.11805204965394345	0.5863941755959244	0.046770612819605595	-0.14712482707598584	0.575234005290645	0.0356562145453192	-0.13818498648693184	0.5557008208753688	0.019723865516748207	-0.12355540990281277	0.5240291906809429	-0.0023450528223363243	-0.10106055259785607	0.6038735103366553	0.0398225148181196	-0.09944873672188093	0.5888267795264962	0.03066406089028373	-0.09561225218805058	0.5669645270467112	0.019746263397331765	-0.09081396151188026	0.5315228045617888	0.0015907897664125814	-0.08381511028194599	0.5996056663873901	0.02666393250636212	-0.05291365566696837	0.5836129693129958	0.020808621691919882	-0.054630913816733684	0.5639632721817477	0.013982554128322278	-0.057478056817606094	0.5319822832592345	-0.001506012997183781	-0.06365900229032984	0.462283081001861	-0.023011742144276925	-0.051989820119430985
12	0.43333333333333146	0.4708422694757056	-0.02078024899793285	-0.1722394156153843	0.4785313278305817	-0.02684663561005529	-0.15145294561474287	0.47193355133806536	-0.03140548513725727	-0.12137793545110143	0.4727166154363831	-0.032825220484275275	-0.07679922795343663	0.5660153461823773	0.02765077140277883	-0.17378177857958454	0.5555216645008548	0.018062784456141068	-0.16255889343012409	0.5400128023508614	0.0065491796672947356	-0.14646784211025216	0.5138515393054173	-0.011410985011078179	-0.11806613627076396	0.5863964797651361	0.04670313427280448	-0.14719401441358865	0.5752376021098421	0.0355997397226443	-0.1382388997332702	0.5557022093293893	0.019686006520019173	-0.12359202039092909	0.5240149843790564	-0.0023385996062518233	-0.10107570584059411	0.6038913033843597	0.03976627313991621	-0.09948621638999755	0.5888367959471944	0.03062225083044634	-0.09564581773513692	0.5669632521384018	0.01973066069856666	-0.09083943399640249	0.531508408163729	0.0016018827038112304	-0.08383784266667704	0.5996002850938781	0.02671012366472325	-0.05302080099955131	0.5836094081789237	0.02084528659845475	-0.05472243012391864	0.5639623999167077	0.014003297910393675	-0.05754984522200113	0.5319743833447914	-0.001491311421125352	-0.06367906445926241	0.4622830810018609	-0.023011742144276925	-0.051989820119430985
13	0.4666666666666647	0.470873813105936	-0.02085638948447921	-0.17225339762574376	0.47854604353450436	-0.02690361282096876	-0.15145512918412668	0.4719164702680938	-0.031435148925979095	-0.12138298361992927	0.47269916759367325	-0.03283277189440348	-0.07680357093947032	0.5659976933985349	0.027578750187431944	-0.1738425394986215	0.5555067182115777	0.017996917579140792	-0.1626118706185708	0.5399926903533628	0.006497991051441554	-0.1465153038627341	0.513813530092661	-0.011406613171784152	-0.11809501516514803	0.5864276974717034	0.046586159550984774	-0.14727753706445268	0.5752625838268721	0.035502361642674285	-0.1383059340178539	0.555716733537939	0.019612031177858036	-0.12364760245517109	0.5239857099691126	-0.0023237054720129935	-0.10110622889670973	0.6039264874458297	0.03966011971050021	-0.09954399780821854	0.588858656833426	0.03054069481250299	-0.09569736679320007	0.5669728569017699	0.019677850857654944	-0.09088172960128682	0.5314931842888458	0.0016010343670975757	-0.08387156763122872	0.599609430277107	0.02671641947052361	-0.05312946566891186	0.5836192748187861	0.020847183527161084	-0.05482268681804392	0.5639727573292539	0.013996867338775032	-0.057633298433447444	0.5319755733315906	-0.001504727726712618	-0.06369664879816628	0.462283081001861	-0.023011742144276925	-0.051989820119430985
14	0.4999999999999978	0.47090681560155956	-0.020896682014089563	-0.17225970925727002	0.47855880881043367	-0.026930492538829953	-0.15145009295896028	0.47189977239153547	-0.031441378559897815	-0.12138135269142136	0.47270006673167764	-0.03283543150726831	-0.07680214065992541	0.5659932167516527	0.02753305329401834	-0.17387804514348293	0.5555062860310848	0.01795470350944861	-0.16264062998400602	0.5399851755820658	0.006470317793232705	-0.14654051047666905	0.5137897327043046	-0.01139724380417273	-0.11811191380006758	0.5864694149703699	0.046482088854503334	-0.1473303693598934	0.5752971734550848	0.03541401727716642	-0.13834823091278148	0.5557326127539055	0.019558133592178728	-0.12367756401798696	0.5239744165597066	-0.0023206745468999923	-0.10111913654832172	0.6039813803605774	0.039539682474446614	-0.09957463391063415	0.5888976243283357	0.030448899805300078	-0.09572262476965898	0.5669980356950195	0.0196162742549868	-0.09090160616585408	0.5314845656511133	0.0016087106585117583	-0.08388434653267207	0.599620793753365	0.026718637793918143	-0.053223448149787966	0.5836312702746425	0.020844096223991526	-0.05490419211202091	0.5639828804982547	0.013991951798752122	-0.057697203922021933	0.5319731170347674	-0.0015036444722902331	-0.06370927429889262	0.4622830810018609	-0.023011742144276925	-0.051989820119430985
